<svg version="1.1" id="Layer_1" xmlns="http://www.w3.org/2000/svg" xmlns:xlink="http://www.w3.org/1999/xlink" x="0px" y="0px" viewBox="0 0 760.5 1599.6" enable-background="new 0 0 760.5 1599.6" xml:space="preserve"><g id="IPHONE5C_x5F_BACK_6_"><path fill="#FEEF6E" d="M7806.8,7568.2v35.1v1299.9v35c0,27.8,10.2,55.5,27.9,75.9c15.5,17.9,44.5,39.1,94.8,39.1h7.5h499.7h7.5c50.3,0,79.3-21.3,94.8-39.1c17.7-20.4,27.9-48.1,27.9-75.9v-35V7603.2v-35.1c0-27.8-10.2-55.5-27.9-75.9c-15.5-17.9-44.5-39.1-94.8-39.1h-7.5H7937h-7.5c-50.3,0-79.3,21.3-94.8,39.1C7817,7512.7,7806.8,7540.4,7806.8,7568.2z"/><path fill="#EDDA6B" d="M8573.8,7795.4v102.4c0,1.1-1.6,2.8-2.8,2.8h-4.2v-108h3.9C8571.9,7792.6,8573.8,7794.3,8573.8,7795.4z"/><path fill="#EDDA6B" d="M7934.8,7449.3v4.3h122v-4.3c0-1.7-2-3.7-3.6-3.7h-114.6C7936.8,7445.6,7934.8,7447.6,7934.8,7449.3z"/><path fill="#EDDA6B" d="M8573.8,7943.4v102.4c0,1.1-1.6,2.8-2.8,2.8h-4.2v-108h3.9C8571.9,7940.6,8573.8,7942.3,8573.8,7943.4z"/><path fill="#EDDA6B" d="M8570.6,7746.6h-3.8v-70h3.8c1.2,0,2.1,0.9,2.1,2v66C8572.8,7745.7,8571.8,7746.6,8570.6,7746.6z"/><path opacity="0.5" fill-rule="evenodd" clip-rule="evenodd" fill="#FFFFFF" d="M7956.1,7553.8c0,23.4-19,42.4-42.4,42.4c-23.4,0-42.4-19-42.4-42.4c0-23.4,19-42.4,42.4-42.4C7937.2,7511.4,7956.1,7530.4,7956.1,7553.8z"/><linearGradient id="SVGID_1_" gradientUnits="userSpaceOnUse" x1="7913.771" y1="7515.043" x2="7913.771" y2="7590.6562"><stop  offset="0" style="stop-color:#010101"/><stop  offset="0.9865" style="stop-color:#231F20"/></linearGradient><path fill-rule="evenodd" clip-rule="evenodd" fill="url(#SVGID_1_)" d="M7953.2,7553.8c0,21.8-17.6,39.4-39.4,39.4c-21.8,0-39.4-17.6-39.4-39.4c0-21.8,17.6-39.4,39.4-39.4C7935.5,7514.4,7953.2,7532,7953.2,7553.8z"/><path fill-rule="evenodd" clip-rule="evenodd" fill="#3B3E42" d="M7943.3,7553.8c0,16.3-13.2,29.5-29.5,29.5c-16.3,0-29.5-13.2-29.5-29.5c0-16.3,13.2-29.5,29.5-29.5C7930.1,7524.3,7943.3,7537.5,7943.3,7553.8z"/><path fill-rule="evenodd" clip-rule="evenodd" fill="#231F20" d="M7932.9,7553.8c0,10.6-8.6,19.1-19.1,19.1c-10.6,0-19.1-8.6-19.1-19.1c0-10.6,8.6-19.1,19.1-19.1C7924.3,7534.7,7932.9,7543.2,7932.9,7553.8z"/><linearGradient id="SVGID_2_" gradientUnits="userSpaceOnUse" x1="-16247.0371" y1="7553.8032" x2="-16217.7588" y2="7553.8032" gradientTransform="matrix(-1 0 0 1 -8318.627 0)"><stop  offset="0" style="stop-color:#2075BC"/><stop  offset="1" style="stop-color:#804099"/></linearGradient><path fill-rule="evenodd" clip-rule="evenodd" fill="url(#SVGID_2_)" d="M7928.4,7553.8c0,8.1-6.6,14.6-14.6,14.6c-8.1,0-14.6-6.6-14.6-14.6s6.6-14.6,14.6-14.6C7921.9,7539.2,7928.4,7545.7,7928.4,7553.8z"/><path fill-rule="evenodd" clip-rule="evenodd" fill="#FFFFFF" d="M7918.1,7564.2c0,1.9-1.9,3.4-4.3,3.4c-2.4,0-4.3-1.5-4.3-3.4c0-1.9,1.9-3.4,4.3-3.4C7916.1,7560.8,7918.1,7562.3,7918.1,7564.2z"/><circle opacity="0.5" fill-rule="evenodd" clip-rule="evenodd" fill="#FFFFFF" cx="7985.2" cy="7553.8" r="6.3"/><linearGradient id="SVGID_3_" gradientUnits="userSpaceOnUse" x1="7985.2402" y1="7548.7476" x2="7985.2402" y2="7559.0474"><stop  offset="0" style="stop-color:#010101"/><stop  offset="0.9865" style="stop-color:#231F20"/></linearGradient><circle fill-rule="evenodd" clip-rule="evenodd" fill="url(#SVGID_3_)" cx="7985.2" cy="7553.8" r="5.1"/><circle opacity="0.5" fill-rule="evenodd" clip-rule="evenodd" fill="#FFFFFF" cx="8036.9" cy="7553.8" r="21.7"/><circle fill-rule="evenodd" clip-rule="evenodd" fill="#FEEF6E" cx="8036.9" cy="7553.8" r="20.8"/><radialGradient id="SVGID_4_" cx="8036.8643" cy="7553.8032" r="19.8904" gradientUnits="userSpaceOnUse"><stop  offset="0" style="stop-color:#D2D3D4"/><stop  offset="0.103" style="stop-color:#F2F2F2"/><stop  offset="0.2271" style="stop-color:#D2D3D4"/><stop  offset="0.38" style="stop-color:#F2F2F2"/><stop  offset="0.5097" style="stop-color:#D2D3D4"/><stop  offset="0.6371" style="stop-color:#E7E7E7"/><stop  offset="0.7171" style="stop-color:#D2D3D4"/><stop  offset="0.8296" style="stop-color:#BDBEC0"/><stop  offset="0.9267" style="stop-color:#6E6F72"/></radialGradient><circle fill-rule="evenodd" clip-rule="evenodd" fill="url(#SVGID_4_)" cx="8036.9" cy="7553.8" r="19.9"/><path opacity="0.5" fill="#FFFFFF" d="M8229.1,7830.5c-7.2,0-13.8,1.1-19.7,3.2l-3.7,1.4l-5,2c-3.3,1.2-6.2,1.9-8.9,1.9c-2.1,0-4.8-0.7-8.2-2.2l-3.8-1.6l-3.6-1.5c-5.3-2.2-11-3.3-17-3.3c-16.3,0-29.3,5.5-39.2,16.5c-9.9,11-14.8,25.4-14.8,43.4c0,25.3,7.9,48.6,23.7,70.1c11,15,21,22.4,30.1,22.4c3.9,0,7.7-0.8,11.5-2.3l4.8-2l3.8-1.4c5.4-1.9,10.3-2.8,14.8-2.8c4.8,0,10.3,1.2,16.5,3.6l3,1.2c6.3,2.4,11.3,3.6,15,3.6c7.8,0,16.4-5.3,25.8-16c9.4-10.6,16.6-23.2,21.6-37.5c-18.5-9.5-27.7-23.2-27.7-41c0-14.9,7.5-27.6,22.4-38.2C8259.8,7837,8246.1,7830.5,8229.1,7830.5L8229.1,7830.5z M8226.6,7783.4c-10.1,1.4-18.9,6.4-26.5,14.8c-7.6,8.4-11.5,17.4-11.5,27c0,1.1,0.2,2.9,0.5,5.5c10.9,0,20.5-4.3,28.7-12.8c8.2-8.5,12.3-18.4,12.3-29.7c0-1.2-0.1-3-0.3-5.3C8228.4,7783.1,8227.3,7783.3,8226.6,7783.4L8226.6,7783.4z"/><path fill="#231F20" d="M8229.1,7827.2c-7.2,0-13.8,1.1-19.7,3.2l-3.7,1.4l-5,2c-3.3,1.2-6.2,1.9-8.9,1.9c-2.1,0-4.8-0.7-8.2-2.2l-3.8-1.6l-3.6-1.5c-5.3-2.2-11-3.3-17-3.3c-16.3,0-29.3,5.5-39.2,16.5c-9.9,11-14.8,25.4-14.8,43.4c0,25.3,7.9,48.6,23.7,70.1c11,15,21,22.4,30.1,22.4c3.9,0,7.7-0.8,11.5-2.3l4.8-2l3.8-1.4c5.4-1.9,10.3-2.8,14.8-2.8c4.8,0,10.3,1.2,16.5,3.6l3,1.2c6.3,2.4,11.3,3.6,15,3.6c7.8,0,16.4-5.3,25.8-16c9.4-10.6,16.6-23.2,21.6-37.5c-18.5-9.5-27.7-23.2-27.7-41.1c0-14.9,7.5-27.6,22.4-38.2C8259.8,7833.7,8246.1,7827.2,8229.1,7827.2L8229.1,7827.2z M8226.6,7780.1c-10.1,1.4-18.9,6.4-26.5,14.8c-7.6,8.4-11.5,17.4-11.5,27c0,1.1,0.2,2.9,0.5,5.5c10.9,0,20.5-4.3,28.7-12.8c8.2-8.5,12.3-18.4,12.3-29.7c0-1.2-0.1-3-0.3-5.3C8228.4,7779.8,8227.3,7779.9,8226.6,7780.1L8226.6,7780.1z"/><path opacity="0.5" fill="#FFFFFF" d="M8113.9,8630.9c0.1,1.8-1.2,3.2-3.3,3.2c-1.8,0-3.1-1.4-3.1-3.2c0-1.8,1.3-3.2,3.2-3.2C8112.7,8627.7,8113.9,8629.1,8113.9,8630.9z M8108.2,8667.3v-28.4h5.2v28.4H8108.2z"/><path opacity="0.5" fill="#FFFFFF" d="M8122.1,8628.2c2.5-0.4,5.7-0.8,9.8-0.8c5,0,8.7,1.2,11.1,3.3c2.2,1.9,3.5,4.7,3.5,8.3c0,3.6-1.1,6.4-3,8.4c-2.7,2.9-7.1,4.3-12.1,4.3c-1.5,0-2.9-0.1-4.1-0.4v15.8h-5.1V8628.2z M8127.2,8647.3c1.1,0.3,2.5,0.4,4.2,0.4c6.2,0,9.9-3,9.9-8.4c0-5.2-3.7-7.7-9.3-7.7c-2.2,0-3.9,0.2-4.8,0.4V8647.3z"/><path opacity="0.5" fill="#FFFFFF" d="M8152.8,8625.7h5.2v17.7h0.1c0.8-1.5,2.1-2.8,3.7-3.6c1.5-0.9,3.3-1.5,5.3-1.5c3.8,0,9.9,2.3,9.9,12.1v16.9h-5.2V8651c0-4.6-1.7-8.4-6.6-8.4c-3.3,0-6,2.3-6.9,5.2c-0.3,0.7-0.4,1.5-0.4,2.5v17.1h-5.2V8625.7z"/><path opacity="0.5" fill="#FFFFFF" d="M8211,8652.8c0,10.5-7.3,15.1-14.1,15.1c-7.7,0-13.6-5.6-13.6-14.6c0-9.5,6.2-15.1,14.1-15.1C8205.5,8638.3,8211,8644.2,8211,8652.8z M8188.5,8653.1c0,6.2,3.6,10.9,8.6,10.9c4.9,0,8.6-4.6,8.6-11c0-4.8-2.4-10.9-8.5-10.9C8191.1,8642.1,8188.5,8647.8,8188.5,8653.1z"/><path opacity="0.5" fill="#FFFFFF" d="M8217.5,8646.6c0-2.9-0.1-5.3-0.2-7.7h4.6l0.3,4.7h0.1c1.4-2.7,4.7-5.3,9.4-5.3c3.9,0,10,2.3,10,12.1v16.9h-5.2v-16.4c0-4.6-1.7-8.4-6.6-8.4c-3.4,0-6,2.4-6.9,5.3c-0.2,0.6-0.4,1.5-0.4,2.4v17.1h-5.2V8646.6z"/><path opacity="0.5" fill="#FFFFFF" d="M8252.9,8654c0.1,7,4.6,9.8,9.7,9.8c3.7,0,5.9-0.6,7.9-1.5l0.9,3.7c-1.8,0.8-4.9,1.8-9.4,1.8c-8.7,0-13.9-5.7-13.9-14.3s5-15.3,13.3-15.3c9.3,0,11.7,8.1,11.7,13.4c0,1.1-0.1,1.9-0.2,2.4H8252.9z M8268,8650.3c0.1-3.3-1.3-8.4-7.2-8.4c-5.2,0-7.5,4.8-7.9,8.4H8268z"/><path fill="#231F20" d="M8113.9,8628.9c0.1,1.8-1.2,3.2-3.3,3.2c-1.8,0-3.1-1.4-3.1-3.2c0-1.8,1.3-3.2,3.2-3.2C8112.7,8625.7,8113.9,8627.1,8113.9,8628.9z M8108.2,8665.2v-28.4h5.2v28.4H8108.2z"/><path fill="#231F20" d="M8122.1,8626.2c2.5-0.4,5.7-0.8,9.8-0.8c5,0,8.7,1.2,11.1,3.3c2.2,1.9,3.5,4.7,3.5,8.3c0,3.6-1.1,6.4-3,8.4c-2.7,2.9-7.1,4.3-12.1,4.3c-1.5,0-2.9-0.1-4.1-0.4v15.8h-5.1V8626.2z M8127.2,8645.2c1.1,0.3,2.5,0.4,4.2,0.4c6.2,0,9.9-3,9.9-8.4c0-5.2-3.7-7.7-9.3-7.7c-2.2,0-3.9,0.2-4.8,0.4V8645.2z"/><path fill="#231F20" d="M8152.8,8623.6h5.2v17.7h0.1c0.8-1.5,2.1-2.8,3.7-3.6c1.5-0.9,3.3-1.5,5.3-1.5c3.8,0,9.9,2.3,9.9,12.1v16.9h-5.2v-16.3c0-4.6-1.7-8.4-6.6-8.4c-3.3,0-6,2.3-6.9,5.2c-0.3,0.7-0.4,1.5-0.4,2.5v17.1h-5.2V8623.6z"/><path fill="#231F20" d="M8211,8650.8c0,10.5-7.3,15.1-14.1,15.1c-7.7,0-13.6-5.6-13.6-14.6c0-9.5,6.2-15.1,14.1-15.1C8205.5,8636.2,8211,8642.1,8211,8650.8z M8188.5,8651.1c0,6.2,3.6,10.9,8.6,10.9c4.9,0,8.6-4.6,8.6-11c0-4.8-2.4-10.9-8.5-10.9C8191.1,8640.1,8188.5,8645.7,8188.5,8651.1z"/><path fill="#231F20" d="M8217.5,8644.5c0-2.9-0.1-5.3-0.2-7.7h4.6l0.3,4.7h0.1c1.4-2.7,4.7-5.3,9.4-5.3c3.9,0,10,2.3,10,12.1v16.9h-5.2v-16.4c0-4.6-1.7-8.4-6.6-8.4c-3.4,0-6,2.4-6.9,5.3c-0.2,0.6-0.4,1.5-0.4,2.4v17.1h-5.2V8644.5z"/><path fill="#231F20" d="M8252.9,8652c0.1,7,4.6,9.8,9.7,9.8c3.7,0,5.9-0.6,7.9-1.5l0.9,3.7c-1.8,0.8-4.9,1.8-9.4,1.8c-8.7,0-13.9-5.7-13.9-14.3c0-8.6,5-15.3,13.3-15.3c9.3,0,11.7,8.1,11.7,13.4c0,1.1-0.1,1.9-0.2,2.4H8252.9z M8268,8648.3c0.1-3.3-1.3-8.4-7.2-8.4c-5.2,0-7.5,4.8-7.9,8.4H8268z"/><ellipse transform="matrix(-0.7071 -0.7071 0.7071 -0.7071 8369.9678 18559.748)" opacity="0.1" fill="#010101" cx="8028.9" cy="7546.4" rx="8.4" ry="4.3"/><ellipse transform="matrix(0.7071 0.7071 -0.7071 0.7071 7692.7183 -3478.458)" opacity="0.1" fill="#010101" cx="8045.1" cy="7546.4" rx="4.3" ry="8.4"/><ellipse transform="matrix(-0.7071 -0.7071 0.7071 -0.7071 8358.9131 18586.0391)" opacity="0.1" fill="#010101" cx="8028.9" cy="7561.8" rx="4.3" ry="8.4"/><ellipse transform="matrix(-0.7071 -0.7071 0.7071 -0.7071 8386.7178 18597.4844)" opacity="0.1" fill="#010101" cx="8045.1" cy="7561.8" rx="8.4" ry="4.3"/></g><g id="IPHONE_x5F_5S_x5F_WHITE_x5F_FRONT_1_"><g><linearGradient id="SVGID_5_" gradientUnits="userSpaceOnUse" x1="516.579" y1="4.5" x2="638.5789" y2="4.5"><stop  offset="2.156409e-02" style="stop-color:#231F20"/><stop  offset="0.1012" style="stop-color:#FFFFFF"/><stop  offset="0.1795" style="stop-color:#010101"/><stop  offset="0.5" style="stop-color:#F1F1F2"/><stop  offset="0.7985" style="stop-color:#010101"/><stop  offset="0.8949" style="stop-color:#FFFFFF"/><stop  offset="0.9771" style="stop-color:#231F20"/></linearGradient><polygon fill-rule="evenodd" clip-rule="evenodd" fill="url(#SVGID_5_)" points="634.7,0 521.8,0 516.6,3 516.6,9 638.6,9 638.6,3 "/><linearGradient id="SVGID_6_" gradientUnits="userSpaceOnUse" x1="516.579" y1="1.5" x2="638.5789" y2="1.5"><stop  offset="2.156409e-02" style="stop-color:#A8A7AC"/><stop  offset="0.1012" style="stop-color:#FFFFFF"/><stop  offset="0.1795" style="stop-color:#A8A7AC"/><stop  offset="0.7985" style="stop-color:#A8A7AC"/><stop  offset="0.8949" style="stop-color:#FFFFFF"/><stop  offset="0.9771" style="stop-color:#A8A7AC"/></linearGradient><path fill-rule="evenodd" clip-rule="evenodd" fill="url(#SVGID_6_)" d="M521.8,0h112.8l3.9,3h-122L521.8,0z"/></g><g><linearGradient id="SVGID_7_" gradientUnits="userSpaceOnUse" x1="4.5002" y1="301.0002" x2="4.5002" y2="228.0001"><stop  offset="2.156409e-02" style="stop-color:#231F20"/><stop  offset="0.1012" style="stop-color:#FFFFFF"/><stop  offset="0.1795" style="stop-color:#010101"/><stop  offset="0.5" style="stop-color:#F1F1F2"/><stop  offset="0.7985" style="stop-color:#010101"/><stop  offset="0.8949" style="stop-color:#FFFFFF"/><stop  offset="0.9771" style="stop-color:#231F20"/></linearGradient><path fill-rule="evenodd" clip-rule="evenodd" fill="url(#SVGID_7_)" d="M3,228c-1.3,1.3-2.2,2.2-3,3v67c1,1,1.7,1.7,3,3h6v-73H3z"/><linearGradient id="SVGID_8_" gradientUnits="userSpaceOnUse" x1="1.5001" y1="301.0002" x2="1.5001" y2="228.0001"><stop  offset="2.156409e-02" style="stop-color:#A8A7AC"/><stop  offset="0.1012" style="stop-color:#FFFFFF"/><stop  offset="0.1795" style="stop-color:#A8A7AC"/><stop  offset="0.7985" style="stop-color:#A8A7AC"/><stop  offset="0.8949" style="stop-color:#FFFFFF"/><stop  offset="0.9771" style="stop-color:#A8A7AC"/></linearGradient><path fill="url(#SVGID_8_)" d="M3,301L3,301c-1.3-1.3-2-2-3-3v-67c0.8-0.8,1.7-1.7,3-3l0,0C3,232.3,3,298.9,3,301z"/><linearGradient id="SVGID_9_" gradientUnits="userSpaceOnUse" x1="4.5" y1="435.0001" x2="4.5" y2="379"><stop  offset="2.156409e-02" style="stop-color:#231F20"/><stop  offset="0.1012" style="stop-color:#FFFFFF"/><stop  offset="0.1795" style="stop-color:#010101"/><stop  offset="0.5" style="stop-color:#F1F1F2"/><stop  offset="0.7985" style="stop-color:#010101"/><stop  offset="0.8949" style="stop-color:#FFFFFF"/><stop  offset="0.9771" style="stop-color:#231F20"/></linearGradient><path fill-rule="evenodd" clip-rule="evenodd" fill="url(#SVGID_9_)" d="M3,379L3,379c-1.3,1.3-2.2,2.2-3,3v50c1,1,1.7,1.7,3,3h6v-56H3z"/><linearGradient id="SVGID_10_" gradientUnits="userSpaceOnUse" x1="1.5" y1="435.0001" x2="1.5" y2="379"><stop  offset="2.156409e-02" style="stop-color:#A8A7AC"/><stop  offset="0.1012" style="stop-color:#FFFFFF"/><stop  offset="0.1795" style="stop-color:#A8A7AC"/><stop  offset="0.7985" style="stop-color:#A8A7AC"/><stop  offset="0.8949" style="stop-color:#FFFFFF"/><stop  offset="0.9771" style="stop-color:#A8A7AC"/></linearGradient><path fill="url(#SVGID_10_)" d="M3,435L3,435c-1.3-1.3-2-2-3-3v-50c0.8-0.8,1.7-1.7,3-3l0,0C3,383.3,3,432.9,3,435z"/><linearGradient id="SVGID_11_" gradientUnits="userSpaceOnUse" x1="4.5" y1="545.0078" x2="4.5" y2="489.0077"><stop  offset="2.156409e-02" style="stop-color:#231F20"/><stop  offset="0.1012" style="stop-color:#FFFFFF"/><stop  offset="0.1795" style="stop-color:#010101"/><stop  offset="0.5" style="stop-color:#F1F1F2"/><stop  offset="0.7985" style="stop-color:#010101"/><stop  offset="0.8949" style="stop-color:#FFFFFF"/><stop  offset="0.9771" style="stop-color:#231F20"/></linearGradient><path fill-rule="evenodd" clip-rule="evenodd" fill="url(#SVGID_11_)" d="M3,489L3,489c-1.3,1.3-2.2,2.2-3,3v50c1,1,1.7,1.7,3,3h6v-56H3z"/><linearGradient id="SVGID_12_" gradientUnits="userSpaceOnUse" x1="1.5" y1="545.0078" x2="1.5" y2="489.0077"><stop  offset="2.156409e-02" style="stop-color:#A8A7AC"/><stop  offset="0.1012" style="stop-color:#FFFFFF"/><stop  offset="0.1795" style="stop-color:#A8A7AC"/><stop  offset="0.7985" style="stop-color:#A8A7AC"/><stop  offset="0.8949" style="stop-color:#FFFFFF"/><stop  offset="0.9771" style="stop-color:#A8A7AC"/></linearGradient><path fill="url(#SVGID_12_)" d="M3,545L3,545c-1.3-1.3-2-2-3-3v-50c0.8-0.8,1.7-1.7,3-3l0,0C3,493.4,3,542.9,3,545z"/></g><linearGradient id="SVGID_13_" gradientUnits="userSpaceOnUse" x1="6.5003" y1="803.6465" x2="760.5003" y2="803.6465"><stop  offset="0" style="stop-color:#F1F1F2"/><stop  offset="0.1" style="stop-color:#010101"/><stop  offset="0.4873" style="stop-color:#F1F1F2"/><stop  offset="0.9" style="stop-color:#010101"/><stop  offset="1" style="stop-color:#F1F1F2"/></linearGradient><path fill="url(#SVGID_13_)" d="M727.7,40.4c-21.2-21.2-49.3-32.8-79.3-32.8H118.6c-29.9,0-58.1,11.6-79.3,32.8C18.2,61.6,6.5,89.7,6.5,119.7v1368c0,29.9,11.7,58.1,32.8,79.2c21.2,21.2,49.3,32.8,79.3,32.8h529.7c29.9,0,58.1-11.7,79.3-32.8c21.2-21.2,32.8-49.3,32.8-79.2v-1368C760.5,89.7,748.8,61.6,727.7,40.4z"/><g><path fill="#808184" d="M648.4,16.6H118.6c-56.9,0-103.1,46.2-103.1,103v1368c0,56.8,46.3,103,103.1,103h529.7c56.9,0,103.1-46.2,103.1-103v-1368C751.5,62.9,705.2,16.6,648.4,16.6z"/><path fill="#FFFFFF" d="M748.5,1487.6c0,55.2-44.8,100-100.1,100H118.6c-55.3,0-100.1-44.8-100.1-100v-1368c0-55.2,44.8-100,100.1-100h529.7c55.3,0,100.1,44.8,100.1,100V1487.6z"/></g><linearGradient id="SVGID_14_" gradientUnits="userSpaceOnUse" x1="383.5003" y1="239.2232" x2="383.5003" y2="1375.2231"><stop  offset="0" style="stop-color:#67308F"/><stop  offset="1" style="stop-color:#D91F5D"/></linearGradient><path fill-rule="evenodd" clip-rule="evenodd" fill="url(#SVGID_14_)" d="M63.5,237.5h640v1136h-640V237.5z"/><linearGradient id="SVGID_15_" gradientUnits="userSpaceOnUse" x1="474.038" y1="-28.8822" x2="543.0449" y2="442.1649"><stop  offset="0" style="stop-color:#FFFFFF"/><stop  offset="1" style="stop-color:#FFFFFF;stop-opacity:0"/></linearGradient><path opacity="0.1" fill="url(#SVGID_15_)" d="M648.4,19.6h-421l448.2,1564.3c42.1-11.8,73-50.5,73-96.3v-1368C748.5,64.4,703.7,19.6,648.4,19.6z"/><path opacity="0.5" fill="#231F20" d="M703.5,237.5v1136h-640v-1136H703.5 M703.5,232.5h-640c-2.8,0-5,2.2-5,5v1136c0,2.8,2.2,5,5,5h640c2.8,0,5-2.2,5-5v-1136C708.5,234.7,706.3,232.5,703.5,232.5L703.5,232.5z"/><g><rect x="6.5" y="145.2" fill="#F1F1F2" width="12" height="12"/><rect x="748.5" y="145.2" fill="#F1F1F2" width="12" height="12"/><rect x="6.5" y="1451.2" fill="#F1F1F2" width="12" height="12"/><rect x="748.5" y="1451.2" fill="#F1F1F2" width="12" height="12"/></g><g><g><linearGradient id="SVGID_16_" gradientUnits="userSpaceOnUse" x1="309.2499" y1="1479.3" x2="449.2501" y2="1479.3"><stop  offset="2.156409e-02" style="stop-color:#727074"/><stop  offset="0.1012" style="stop-color:#FFFFFF"/><stop  offset="0.1795" style="stop-color:#727074"/><stop  offset="0.7985" style="stop-color:#727074"/><stop  offset="0.8949" style="stop-color:#FFFFFF"/><stop  offset="0.9771" style="stop-color:#727074"/></linearGradient><path fill-rule="evenodd" clip-rule="evenodd" fill="url(#SVGID_16_)" d="M379.3,1409.3c-38.7,0-70,31.3-70,70c0,38.7,31.3,70,70,70c38.7,0,70-31.3,70-70C449.3,1440.6,417.9,1409.3,379.3,1409.3z M379.2,1541.3c-34.2,0-62-27.8-62-62c0-34.2,27.8-62,62-62c34.2,0,62,27.8,62,62C441.2,1513.5,413.5,1541.3,379.2,1541.3z"/></g></g><g><path fill="#F2F2F2" d="M449.3,170.2c0,8.3-6.7,15-15,15h-110c-8.3,0-15-6.7-15-15l0,0c0-8.3,6.7-15,15-15h110C442.5,155.2,449.3,161.9,449.3,170.2L449.3,170.2z"/><path opacity="0.1" fill="#0F0F10" d="M449.3,169.2c0,8.3-6.7,15-15,15h-110c-8.3,0-15-6.7-15-15l0,0c0-8.3,6.7-15,15-15h110C442.5,154.2,449.3,160.9,449.3,169.2L449.3,169.2z"/><linearGradient id="SVGID_17_" gradientUnits="userSpaceOnUse" x1="325.521" y1="177.1801" x2="395.1355" y2="183.8354"><stop  offset="0" style="stop-color:#FFFFFF"/><stop  offset="1" style="stop-color:#000000;stop-opacity:0"/></linearGradient><path opacity="0.2" fill="url(#SVGID_17_)" d="M320.8,180.7c-0.8,0.6-1.8,1.3-2.8,2.2c1.9,0.9,4,1.4,6.3,1.4h93.6c-0.8-0.4-1.6-0.8-2.3-1.1c-4.1-2-8.2-3.9-12.5-5.3c-0.5-0.2-1.1-0.4-1.6-0.5h-74.5C324.7,178.2,322.7,179.3,320.8,180.7z"/><linearGradient id="SVGID_18_" gradientUnits="userSpaceOnUse" x1="431.3701" y1="179.9605" x2="443.9931" y2="179.9605"><stop  offset="0" style="stop-color:#000000;stop-opacity:0"/><stop  offset="1" style="stop-color:#FFFFFF"/></linearGradient><path opacity="0.2" fill="url(#SVGID_18_)" d="M442,178.7c-0.3-0.3-1.6-1.6-3.1-3c-1.3,0.9-2.9,1.5-4.6,1.5h-2.8c0.2,2.3,0.9,4.7,1.7,7h1.1c3.7,0,7.1-1.4,9.7-3.6C443.3,180,442.6,179.4,442,178.7z"/><path fill="#010101" d="M434.3,161.2h-110c-4.4,0-8,3.6-8,8c0,4.4,3.6,8,8,8h2.6h74.5h30.1h2.8c1.7,0,3.3-0.6,4.6-1.5c2-1.5,3.4-3.8,3.4-6.5C442.3,164.8,438.7,161.2,434.3,161.2z"/></g><g><circle opacity="0.2" fill-rule="evenodd" clip-rule="evenodd" fill="#FFFFFF" cx="379.3" cy="100.4" r="14.2"/><linearGradient id="SVGID_19_" gradientUnits="userSpaceOnUse" x1="379.2501" y1="85.6935" x2="379.2501" y2="113.2981"><stop  offset="0" style="stop-color:#010101"/><stop  offset="1" style="stop-color:#231F20"/></linearGradient><circle fill-rule="evenodd" clip-rule="evenodd" fill="url(#SVGID_19_)" cx="379.3" cy="99.6" r="14.2"/><circle fill-rule="evenodd" clip-rule="evenodd" fill="#2BACE2" cx="379.3" cy="99.6" r="6.1"/><linearGradient id="SVGID_20_" gradientUnits="userSpaceOnUse" x1="375.0321" y1="99.599" x2="383.4681" y2="99.599"><stop  offset="0" style="stop-color:#2075BC"/><stop  offset="1" style="stop-color:#922A8E"/></linearGradient><circle fill-rule="evenodd" clip-rule="evenodd" fill="url(#SVGID_20_)" cx="379.3" cy="99.6" r="4.2"/><ellipse fill-rule="evenodd" clip-rule="evenodd" fill="#FFFFFF" cx="379.3" cy="97.6" rx="1.8" ry="1.2"/></g><path opacity="0.5" fill-rule="evenodd" clip-rule="evenodd" fill="#0F0F10" d="M273,160.2c5,0,9,4,9,9c0,5-4,9-9,9c-5,0-9-4-9-9C264,164.2,268,160.2,273,160.2z"/></g></svg>