<?xml version="1.0" encoding="utf-8"?>
<!DOCTYPE svg PUBLIC "-//W3C//DTD SVG 1.1//EN" "http://www.w3.org/Graphics/SVG/1.1/DTD/svg11.dtd">
<svg version="1.1" id="Capa_1" xmlns="http://www.w3.org/2000/svg" xmlns:xlink="http://www.w3.org/1999/xlink" x="0px" y="0px" viewBox="0 0 16 16" enable-background="new 0 0 16 16" xml:space="preserve">
						<g>
							<path id="svg_3" fill="white" d="m4.04949,8.47441l8,0c0.275,0 0.5,-0.225 0.5,-0.5c0,-0.276 -0.225,-0.5 -0.5,-0.5l-8,0c-0.276,0 -0.5,0.224 -0.5,0.5c0,0.275 0.224,0.5 0.5,0.5z"/>
							<path id="svg_4" fill="white" d="m4.04949,5.47441l8,0c0.275,0 0.5,-0.224 0.5,-0.5s-0.225,-0.5 -0.5,-0.5l-8,0c-0.276,0 -0.5,0.224 -0.5,0.5s0.224,0.5 0.5,0.5z"/>
							<path id="svg_5" fill="white" d="m4.04949,11.47441l8,0c0.275,0 0.5,-0.225 0.5,-0.5s-0.225,-0.5 -0.5,-0.5l-8,0c-0.276,0 -0.5,0.225 -0.5,0.5s0.224,0.5 0.5,0.5z"/>
						</g>
					</svg>
